<svg version="1.1" id="Layer_1" xmlns="http://www.w3.org/2000/svg" xmlns:xlink="http://www.w3.org/1999/xlink" x="0px" y="0px"
	 width="100%" viewBox="0 0 197 257" enable-background="new 0 0 197 257" xml:space="preserve">
<path fill="#FEFEFF" opacity="1.000000" stroke="none" 
	d="
M93.000000,258.000000 
	C62.000000,258.000000 31.500004,258.000000 1.000004,258.000000 
	C1.000003,172.333344 1.000003,86.666679 1.000001,1.000016 
	C66.666656,1.000010 132.333313,1.000010 197.999969,1.000005 
	C197.999985,86.666649 197.999985,172.333298 198.000000,257.999969 
	C163.166672,258.000000 128.333328,258.000000 93.000000,258.000000 
M38.628689,100.504623 
	C38.628689,117.436279 38.628689,134.367935 38.628689,151.550598 
	C52.698730,151.550598 66.108109,151.550598 80.143509,151.550598 
	C80.143509,134.953751 80.143509,118.573891 80.143509,102.076950 
	C91.531189,102.076950 102.291801,102.076950 113.746902,102.076950 
	C113.746902,118.686584 113.746902,135.056976 113.746902,151.503296 
	C127.852295,151.503296 141.259232,151.503296 155.158142,151.503296 
	C155.158142,129.297424 155.158142,107.393051 155.158142,84.856934 
	C163.443680,84.856934 171.254440,84.856934 179.957153,84.856934 
	C151.788956,59.510658 124.451782,34.912170 96.844223,10.070380 
	C69.145996,35.004925 41.795109,59.626785 13.380609,85.206131 
	C22.680984,85.206131 30.431139,85.206131 38.628323,85.206131 
	C38.628323,90.240524 38.628323,94.873779 38.628689,100.504623 
M42.316788,244.022446 
	C45.224922,244.429413 48.133057,244.836365 51.475693,245.304138 
	C51.475693,238.486908 51.381447,232.679672 51.504150,226.877045 
	C51.611107,221.819000 53.702885,219.438461 57.689220,219.595596 
	C62.355263,219.779541 63.304821,222.877533 63.264725,226.807861 
	C63.204105,232.749680 63.248901,238.692581 63.248901,244.757370 
	C66.609177,244.757370 69.356285,244.757370 72.143463,244.757370 
	C72.143463,236.722595 72.534355,228.923172 72.011887,221.185425 
	C71.636978,215.632965 67.677658,211.873962 62.557713,212.140671 
	C58.745125,212.339249 55.017921,214.177155 51.069813,215.338745 
	C51.045513,215.164108 50.858860,213.822678 50.671749,212.477921 
	C47.829464,212.477921 45.247917,212.477921 42.798210,212.477921 
	C42.534145,213.077240 42.292473,213.370941 42.291111,213.665756 
	C42.245819,223.478333 42.223488,233.291000 42.316788,244.022446 
M158.218658,212.276199 
	C150.561172,214.170227 147.055756,219.552094 146.180374,226.938492 
	C144.994308,236.946548 151.273193,244.831558 160.958328,245.726990 
	C169.956604,246.558929 177.210464,240.574554 178.150696,231.543427 
	C179.505920,218.526077 172.493637,211.389816 158.218658,212.276199 
M99.253456,241.243134 
	C104.766884,246.347900 111.128197,246.932358 117.778992,244.219147 
	C122.425125,242.323761 125.034737,238.674057 125.016731,233.194153 
	C121.215652,233.169769 117.628952,231.700455 115.043297,236.362000 
	C113.148460,239.778107 106.744896,239.043518 105.660805,235.153168 
	C104.540039,231.131210 104.454514,226.289490 105.622375,222.306671 
	C106.852837,218.110397 113.306740,217.558807 115.315407,221.323257 
	C117.956558,226.273102 121.443115,224.154572 125.130280,224.026779 
	C124.771980,218.131821 121.716110,214.748505 116.836311,212.908905 
	C109.913231,210.299042 101.986023,212.450333 97.878448,217.869629 
	C93.342896,223.853607 93.728500,233.882217 99.253456,241.243134 
M34.952126,211.534729 
	C34.952126,208.260971 34.952126,204.987213 34.952126,201.610016 
	C31.601688,201.610016 28.876396,201.610016 26.078279,201.610016 
	C26.078279,216.181259 26.078279,230.403046 26.078279,244.698471 
	C29.134254,244.698471 31.861748,244.698471 34.952103,244.698471 
	C34.952103,233.768753 34.952103,223.147308 34.952126,211.534729 
M88.830383,235.452454 
	C88.830383,227.865250 88.830383,220.278061 88.830383,212.449005 
	C85.534248,212.449005 82.816139,212.449005 79.907463,212.449005 
	C79.907463,223.404617 79.907463,234.073563 79.907463,244.669922 
	C83.015770,244.669922 85.748314,244.669922 88.830261,244.669922 
	C88.830261,241.697342 88.830261,239.066330 88.830383,235.452454 
M131.081909,241.274536 
	C131.735901,248.716888 136.928497,243.294968 139.857635,245.231522 
	C139.857635,233.790833 139.857635,223.222672 139.857635,212.547974 
	C136.830032,212.547974 134.122055,212.547974 131.081604,212.547974 
	C131.081604,222.051483 131.081604,231.185699 131.081909,241.274536 
M85.230049,207.968918 
	C86.486046,206.270279 88.312988,204.705490 88.755928,202.816254 
	C88.975708,201.878830 86.870590,199.706146 85.433395,199.214554 
	C82.472183,198.201614 79.898415,199.686829 79.412567,202.745224 
	C78.872940,206.142120 81.012535,207.931396 85.230049,207.968918 
M131.518036,201.214569 
	C130.106079,204.461838 131.087875,207.076263 134.430740,207.704544 
	C136.097214,208.017746 138.743622,206.873032 139.785614,205.504028 
	C140.549332,204.500626 139.787231,200.703033 139.070129,200.510025 
	C136.875763,199.919357 134.374908,200.467270 131.518036,201.214569 
z"/>
<path fill="#2D7BC3" opacity="1.000000" stroke="none" 
	d="
M38.628506,100.005829 
	C38.628323,94.873779 38.628323,90.240524 38.628323,85.206131 
	C30.431139,85.206131 22.680984,85.206131 13.380609,85.206131 
	C41.795109,59.626785 69.145996,35.004925 96.844223,10.070380 
	C124.451782,34.912170 151.788956,59.510658 179.957153,84.856934 
	C171.254440,84.856934 163.443680,84.856934 155.158142,84.856934 
	C155.158142,107.393051 155.158142,129.297424 155.158142,151.503296 
	C141.259232,151.503296 127.852295,151.503296 113.746902,151.503296 
	C113.746902,135.056976 113.746902,118.686584 113.746902,102.076950 
	C102.291801,102.076950 91.531189,102.076950 80.143509,102.076950 
	C80.143509,118.573891 80.143509,134.953751 80.143509,151.550598 
	C66.108109,151.550598 52.698730,151.550598 38.628689,151.550598 
	C38.628689,134.367935 38.628689,117.436279 38.628506,100.005829 
z"/>
<path fill="#347FC5" opacity="1.000000" stroke="none" 
	d="
M42.257290,243.563049 
	C42.223488,233.291000 42.245819,223.478333 42.291111,213.665756 
	C42.292473,213.370941 42.534145,213.077240 42.798210,212.477921 
	C45.247917,212.477921 47.829464,212.477921 50.671749,212.477921 
	C50.858860,213.822678 51.045513,215.164108 51.069813,215.338745 
	C55.017921,214.177155 58.745125,212.339249 62.557713,212.140671 
	C67.677658,211.873962 71.636978,215.632965 72.011887,221.185425 
	C72.534355,228.923172 72.143463,236.722595 72.143463,244.757370 
	C69.356285,244.757370 66.609177,244.757370 63.248901,244.757370 
	C63.248901,238.692581 63.204105,232.749680 63.264725,226.807861 
	C63.304821,222.877533 62.355263,219.779541 57.689220,219.595596 
	C53.702885,219.438461 51.611107,221.819000 51.504150,226.877045 
	C51.381447,232.679672 51.475693,238.486908 51.475693,245.304138 
	C48.133057,244.836365 45.224922,244.429413 42.257290,243.563049 
z"/>
<path fill="#327EC5" opacity="1.000000" stroke="none" 
	d="
M158.631180,212.187424 
	C172.493637,211.389816 179.505920,218.526077 178.150696,231.543427 
	C177.210464,240.574554 169.956604,246.558929 160.958328,245.726990 
	C151.273193,244.831558 144.994308,236.946548 146.180374,226.938492 
	C147.055756,219.552094 150.561172,214.170227 158.631180,212.187424 
M166.518051,236.918533 
	C169.985413,232.332001 170.050552,227.275940 167.623749,222.444763 
	C166.789886,220.784744 164.073410,219.153915 162.234421,219.173187 
	C160.397400,219.192429 157.581467,220.924194 156.976746,222.562836 
	C155.893524,225.498108 155.538452,229.011398 155.973007,232.130707 
	C156.785767,237.965118 160.337616,239.602814 166.518051,236.918533 
z"/>
<path fill="#327EC5" opacity="1.000000" stroke="none" 
	d="
M99.004715,240.967285 
	C93.728500,233.882217 93.342896,223.853607 97.878448,217.869629 
	C101.986023,212.450333 109.913231,210.299042 116.836311,212.908905 
	C121.716110,214.748505 124.771980,218.131821 125.130280,224.026779 
	C121.443115,224.154572 117.956558,226.273102 115.315407,221.323257 
	C113.306740,217.558807 106.852837,218.110397 105.622375,222.306671 
	C104.454514,226.289490 104.540039,231.131210 105.660805,235.153168 
	C106.744896,239.043518 113.148460,239.778107 115.043297,236.362000 
	C117.628952,231.700455 121.215652,233.169769 125.016731,233.194153 
	C125.034737,238.674057 122.425125,242.323761 117.778992,244.219147 
	C111.128197,246.932358 104.766884,246.347900 99.004715,240.967285 
z"/>
<path fill="#307DC4" opacity="1.000000" stroke="none" 
	d="
M34.952114,212.030304 
	C34.952103,223.147308 34.952103,233.768753 34.952103,244.698471 
	C31.861748,244.698471 29.134254,244.698471 26.078279,244.698471 
	C26.078279,230.403046 26.078279,216.181259 26.078279,201.610016 
	C28.876396,201.610016 31.601688,201.610016 34.952126,201.610016 
	C34.952126,204.987213 34.952126,208.260971 34.952114,212.030304 
z"/>
<path fill="#3580C5" opacity="1.000000" stroke="none" 
	d="
M88.830322,235.943878 
	C88.830261,239.066330 88.830261,241.697342 88.830261,244.669922 
	C85.748314,244.669922 83.015770,244.669922 79.907463,244.669922 
	C79.907463,234.073563 79.907463,223.404617 79.907463,212.449005 
	C82.816139,212.449005 85.534248,212.449005 88.830383,212.449005 
	C88.830383,220.278061 88.830383,227.865250 88.830322,235.943878 
z"/>
<path fill="#327EC5" opacity="1.000000" stroke="none" 
	d="
M131.081757,240.797226 
	C131.081604,231.185699 131.081604,222.051483 131.081604,212.547974 
	C134.122055,212.547974 136.830032,212.547974 139.857635,212.547974 
	C139.857635,223.222672 139.857635,233.790833 139.857635,245.231522 
	C136.928497,243.294968 131.735901,248.716888 131.081757,240.797226 
z"/>
<path fill="#3B83C7" opacity="1.000000" stroke="none" 
	d="
M84.837418,208.003479 
	C81.012535,207.931396 78.872940,206.142120 79.412567,202.745224 
	C79.898415,199.686829 82.472183,198.201614 85.433395,199.214554 
	C86.870590,199.706146 88.975708,201.878830 88.755928,202.816254 
	C88.312988,204.705490 86.486046,206.270279 84.837418,208.003479 
z"/>
<path fill="#3881C6" opacity="1.000000" stroke="none" 
	d="
M131.755646,200.893433 
	C134.374908,200.467270 136.875763,199.919357 139.070129,200.510025 
	C139.787231,200.703033 140.549332,204.500626 139.785614,205.504028 
	C138.743622,206.873032 136.097214,208.017746 134.430740,207.704544 
	C131.087875,207.076263 130.106079,204.461838 131.755646,200.893433 
z"/>
<path fill="#F8FBFD" opacity="1.000000" stroke="none" 
	d="
M166.232208,237.169189 
	C160.337616,239.602814 156.785767,237.965118 155.973007,232.130707 
	C155.538452,229.011398 155.893524,225.498108 156.976746,222.562836 
	C157.581467,220.924194 160.397400,219.192429 162.234421,219.173187 
	C164.073410,219.153915 166.789886,220.784744 167.623749,222.444763 
	C170.050552,227.275940 169.985413,232.332001 166.232208,237.169189 
z"/>
</svg>