<svg version="1.1" id="Layer_1" xmlns="http://www.w3.org/2000/svg" xmlns:xlink="http://www.w3.org/1999/xlink" x="0px" y="0px"
	 width="100%" viewBox="0 0 187 254" enable-background="new 0 0 187 254" xml:space="preserve">
<path fill="#FEFEFF" opacity="1.000000" stroke="none" 
	d="
M1.000000,104.000000 
	C1.000000,69.333336 1.000000,35.166679 1.000000,1.000014 
	C63.333317,1.000009 125.666634,1.000009 187.999969,1.000005 
	C187.999969,85.666634 187.999969,170.333267 187.999985,254.999939 
	C125.666710,254.999954 63.333420,254.999954 1.000065,254.999969 
	C1.000000,204.833328 1.000000,154.666672 1.000000,104.000000 
M101.499947,137.273392 
	C119.566360,137.273392 137.632767,137.273392 155.962265,137.273392 
	C155.962265,130.780426 155.527069,125.090927 156.052124,119.491470 
	C157.173538,107.531982 151.475418,99.696877 141.510132,94.496574 
	C119.354744,82.934975 95.925247,78.669258 71.439934,84.635048 
	C61.532318,87.049019 51.883648,91.008392 42.586849,95.285484 
	C35.828884,98.394554 30.158834,103.817940 29.488787,111.821854 
	C28.799900,120.050812 29.335913,128.382324 29.335913,137.273590 
	C53.285717,137.273590 76.892830,137.273590 101.499947,137.273392 
M68.405685,21.971500 
	C67.542686,23.193913 66.634598,24.387218 65.823738,25.643288 
	C58.667805,36.728184 59.461433,51.343269 67.781662,62.050991 
	C75.691101,72.230042 90.031723,76.580948 102.342010,72.536499 
	C115.051651,68.360840 123.931305,56.433460 124.135162,43.263359 
	C124.341194,29.953320 116.833519,18.244616 104.889809,13.248979 
	C92.350838,8.004360 79.388840,10.961564 68.405685,21.971500 
M46.989597,201.752213 
	C43.530392,199.695862 40.256634,196.411041 36.571003,195.854675 
	C30.121744,194.881134 23.419550,195.583191 16.539154,195.583191 
	C16.539154,210.031555 16.539154,224.249878 16.539154,238.701767 
	C19.618935,238.701767 22.489086,238.701767 25.951738,238.701767 
	C25.951738,234.008072 25.951738,229.621094 25.951738,225.315842 
	C47.079628,223.392899 53.293301,216.578079 46.989597,201.752213 
M69.641289,225.011505 
	C74.552979,225.011505 79.464668,225.011505 84.310333,225.011505 
	C84.797127,213.464798 79.907341,206.763931 71.034050,205.980988 
	C61.243916,205.117126 54.526398,210.643631 53.214367,220.641266 
	C51.943787,230.323044 57.347054,237.885040 66.701355,239.516647 
	C75.079735,240.978027 82.165260,236.981369 83.668571,229.699448 
	C80.126411,229.285736 76.909065,228.204041 73.599297,231.447845 
	C72.237251,232.782745 68.336128,232.758865 66.295181,231.819962 
	C64.285713,230.895554 63.168999,228.030487 60.907349,225.011505 
	C64.719467,225.011505 66.706573,225.011505 69.641289,225.011505 
M117.466599,213.246643 
	C117.815941,214.953705 118.437202,216.656082 118.466713,218.368652 
	C118.583397,225.139572 118.514618,231.913696 118.514618,238.733047 
	C121.829353,238.733047 124.579292,238.733047 127.942070,238.733047 
	C127.942070,230.095901 127.942070,221.727646 127.942070,213.375366 
	C130.308044,213.129974 132.060989,212.948151 133.671280,212.781128 
	C133.671280,210.417816 133.671280,208.389908 133.671280,206.426422 
	C131.473404,206.189484 129.726303,206.001144 128.126282,205.828659 
	C126.803520,199.814194 131.492447,201.168503 134.392761,200.492340 
	C134.809021,198.315979 135.171219,196.422272 135.526901,194.562637 
	C124.863533,191.193970 120.116318,194.260620 118.118759,205.661240 
	C116.820206,206.020172 115.463615,206.395172 113.773705,206.862289 
	C114.957848,209.073120 111.739380,212.657959 117.466599,213.246643 
M100.735313,216.643448 
	C103.759865,215.353271 106.784409,214.063080 109.913063,212.728485 
	C109.913063,210.924271 109.913063,208.646210 109.913063,204.737778 
	C105.739647,206.590424 102.387627,208.078445 99.235237,209.477844 
	C99.138794,208.911850 98.926277,207.664612 98.726295,206.490997 
	C95.871918,206.490997 93.291901,206.490997 90.508118,206.490997 
	C90.508118,217.387238 90.508118,227.950974 90.508118,238.769730 
	C93.520927,238.769730 96.274811,238.769730 99.221245,238.769730 
	C99.564651,231.543716 99.901665,224.452347 100.735313,216.643448 
M165.082504,231.435059 
	C165.082504,219.528122 165.082504,207.621170 165.082504,195.636566 
	C161.732147,195.636566 159.019653,195.636566 156.324005,195.636566 
	C156.324005,210.226822 156.324005,224.444885 156.324005,238.670471 
	C159.354568,238.670471 162.075455,238.670471 165.082565,238.670471 
	C165.082565,236.361267 165.082565,234.388382 165.082504,231.435059 
M148.896530,216.534286 
	C148.896530,213.252716 148.896530,209.971146 148.896530,206.514175 
	C145.616592,206.514175 142.905807,206.514175 140.074310,206.514175 
	C140.074310,217.425064 140.074310,227.991119 140.074310,238.700851 
	C143.069717,238.700851 145.786469,238.700851 148.896454,238.700851 
	C148.896454,231.435394 148.896454,224.480438 148.896530,216.534286 
M147.416855,194.009842 
	C144.589859,192.257812 141.757507,192.303375 140.199905,195.344162 
	C139.516373,196.678574 139.950363,199.907242 140.924835,200.473999 
	C142.582901,201.438293 145.940933,201.883118 146.981323,200.881241 
	C148.208252,199.699738 147.730667,196.748169 147.416855,194.009842 
z"/>
<path fill="#307CC4" opacity="1.000000" stroke="none" 
	d="
M100.999939,137.273499 
	C76.892830,137.273590 53.285717,137.273590 29.335913,137.273590 
	C29.335913,128.382324 28.799900,120.050812 29.488787,111.821854 
	C30.158834,103.817940 35.828884,98.394554 42.586849,95.285484 
	C51.883648,91.008392 61.532318,87.049019 71.439934,84.635048 
	C95.925247,78.669258 119.354744,82.934975 141.510132,94.496574 
	C151.475418,99.696877 157.173538,107.531982 156.052124,119.491470 
	C155.527069,125.090927 155.962265,130.780426 155.962265,137.273392 
	C137.632767,137.273392 119.566360,137.273392 100.999939,137.273499 
M132.685944,106.706841 
	C105.732689,93.720184 78.790115,93.833405 51.960159,106.982491 
	C44.112450,110.828583 43.348892,112.774117 44.752987,121.776451 
	C76.723648,121.776451 108.719749,121.776451 140.468964,121.776451 
	C142.384186,114.453392 139.966949,109.662178 132.685944,106.706841 
z"/>
<path fill="#2F7CC4" opacity="1.000000" stroke="none" 
	d="
M68.657883,21.714516 
	C79.388840,10.961564 92.350838,8.004360 104.889809,13.248979 
	C116.833519,18.244616 124.341194,29.953320 124.135162,43.263359 
	C123.931305,56.433460 115.051651,68.360840 102.342010,72.536499 
	C90.031723,76.580948 75.691101,72.230042 67.781662,62.050991 
	C59.461433,51.343269 58.667805,36.728184 65.823738,25.643288 
	C66.634598,24.387218 67.542686,23.193913 68.657883,21.714516 
M108.083694,48.190796 
	C110.984642,38.090199 106.400482,29.047998 97.039383,26.406013 
	C88.111702,23.886353 78.979362,29.206457 76.502502,38.369892 
	C74.427017,46.048374 78.639847,54.501366 86.117485,57.662228 
	C94.462257,61.189632 102.810066,57.840466 108.083694,48.190796 
z"/>
<path fill="#3781C6" opacity="1.000000" stroke="none" 
	d="
M47.179089,202.089630 
	C53.293301,216.578079 47.079628,223.392899 25.951738,225.315842 
	C25.951738,229.621094 25.951738,234.008072 25.951738,238.701767 
	C22.489086,238.701767 19.618935,238.701767 16.539154,238.701767 
	C16.539154,224.249878 16.539154,210.031555 16.539154,195.583191 
	C23.419550,195.583191 30.121744,194.881134 36.571003,195.854675 
	C40.256634,196.411041 43.530392,199.695862 47.179089,202.089630 
M27.525524,217.278442 
	C29.507053,217.252411 31.495703,217.324066 33.468647,217.180267 
	C37.747776,216.868362 39.613129,214.047562 39.672413,210.198532 
	C39.733173,206.253632 37.591022,203.581833 33.500317,203.130035 
	C31.102991,202.865250 28.652514,203.081741 25.434679,203.081741 
	C25.846941,208.083084 26.217211,212.575012 27.525524,217.278442 
z"/>
<path fill="#337EC5" opacity="1.000000" stroke="none" 
	d="
M69.167480,225.011505 
	C66.706573,225.011505 64.719467,225.011505 60.907349,225.011505 
	C63.168999,228.030487 64.285713,230.895554 66.295181,231.819962 
	C68.336128,232.758865 72.237251,232.782745 73.599297,231.447845 
	C76.909065,228.204041 80.126411,229.285736 83.668571,229.699448 
	C82.165260,236.981369 75.079735,240.978027 66.701355,239.516647 
	C57.347054,237.885040 51.943787,230.323044 53.214367,220.641266 
	C54.526398,210.643631 61.243916,205.117126 71.034050,205.980988 
	C79.907341,206.763931 84.797127,213.464798 84.310333,225.011505 
	C79.464668,225.011505 74.552979,225.011505 69.167480,225.011505 
M66.646751,219.235474 
	C69.664116,219.235474 72.681480,219.235474 75.698837,219.235474 
	C75.942284,218.594269 76.185722,217.953049 76.429161,217.311844 
	C74.392509,215.830200 72.503716,213.509735 70.275139,213.116913 
	C68.284111,212.765976 65.438011,214.024643 63.835915,215.508698 
	C61.715340,217.473038 62.279842,219.390854 66.646751,219.235474 
z"/>
<path fill="#347FC5" opacity="1.000000" stroke="none" 
	d="
M117.008606,213.176941 
	C111.739380,212.657959 114.957848,209.073120 113.773705,206.862289 
	C115.463615,206.395172 116.820206,206.020172 118.118759,205.661240 
	C120.116318,194.260620 124.863533,191.193970 135.526901,194.562637 
	C135.171219,196.422272 134.809021,198.315979 134.392761,200.492340 
	C131.492447,201.168503 126.803520,199.814194 128.126282,205.828659 
	C129.726303,206.001144 131.473404,206.189484 133.671280,206.426422 
	C133.671280,208.389908 133.671280,210.417816 133.671280,212.781128 
	C132.060989,212.948151 130.308044,213.129974 127.942070,213.375366 
	C127.942070,221.727646 127.942070,230.095901 127.942070,238.733047 
	C124.579292,238.733047 121.829353,238.733047 118.514618,238.733047 
	C118.514618,231.913696 118.583397,225.139572 118.466713,218.368652 
	C118.437202,216.656082 117.815941,214.953705 117.008606,213.176941 
z"/>
<path fill="#3681C6" opacity="1.000000" stroke="none" 
	d="
M100.486992,217.002197 
	C99.901665,224.452347 99.564651,231.543716 99.221245,238.769730 
	C96.274811,238.769730 93.520927,238.769730 90.508118,238.769730 
	C90.508118,227.950974 90.508118,217.387238 90.508118,206.490997 
	C93.291901,206.490997 95.871918,206.490997 98.726295,206.490997 
	C98.926277,207.664612 99.138794,208.911850 99.235237,209.477844 
	C102.387627,208.078445 105.739647,206.590424 109.913063,204.737778 
	C109.913063,208.646210 109.913063,210.924271 109.913063,212.728485 
	C106.784409,214.063080 103.759865,215.353271 100.486992,217.002197 
z"/>
<path fill="#2F7CC4" opacity="1.000000" stroke="none" 
	d="
M165.082535,231.925262 
	C165.082565,234.388382 165.082565,236.361267 165.082565,238.670471 
	C162.075455,238.670471 159.354568,238.670471 156.324005,238.670471 
	C156.324005,224.444885 156.324005,210.226822 156.324005,195.636566 
	C159.019653,195.636566 161.732147,195.636566 165.082504,195.636566 
	C165.082504,207.621170 165.082504,219.528122 165.082535,231.925262 
z"/>
<path fill="#337EC5" opacity="1.000000" stroke="none" 
	d="
M148.896484,217.029877 
	C148.896454,224.480438 148.896454,231.435394 148.896454,238.700851 
	C145.786469,238.700851 143.069717,238.700851 140.074310,238.700851 
	C140.074310,227.991119 140.074310,217.425064 140.074310,206.514175 
	C142.905807,206.514175 145.616592,206.514175 148.896530,206.514175 
	C148.896530,209.971146 148.896530,213.252716 148.896484,217.029877 
z"/>
<path fill="#3781C6" opacity="1.000000" stroke="none" 
	d="
M147.704468,194.286942 
	C147.730667,196.748169 148.208252,199.699738 146.981323,200.881241 
	C145.940933,201.883118 142.582901,201.438293 140.924835,200.473999 
	C139.950363,199.907242 139.516373,196.678574 140.199905,195.344162 
	C141.757507,192.303375 144.589859,192.257812 147.704468,194.286942 
z"/>
<path fill="#FDFEFE" opacity="1.000000" stroke="none" 
	d="
M133.025528,106.862274 
	C139.966949,109.662178 142.384186,114.453392 140.468964,121.776451 
	C108.719749,121.776451 76.723648,121.776451 44.752987,121.776451 
	C43.348892,112.774117 44.112450,110.828583 51.960159,106.982491 
	C78.790115,93.833405 105.732689,93.720184 133.025528,106.862274 
z"/>
<path fill="#FCFDFE" opacity="1.000000" stroke="none" 
	d="
M107.964020,48.568069 
	C102.810066,57.840466 94.462257,61.189632 86.117485,57.662228 
	C78.639847,54.501366 74.427017,46.048374 76.502502,38.369892 
	C78.979362,29.206457 88.111702,23.886353 97.039383,26.406013 
	C106.400482,29.047998 110.984642,38.090199 107.964020,48.568069 
z"/>
<path fill="#FCFDFE" opacity="1.000000" stroke="none" 
	d="
M27.056503,217.172699 
	C26.217211,212.575012 25.846941,208.083084 25.434679,203.081741 
	C28.652514,203.081741 31.102991,202.865250 33.500317,203.130035 
	C37.591022,203.581833 39.733173,206.253632 39.672413,210.198532 
	C39.613129,214.047562 37.747776,216.868362 33.468647,217.180267 
	C31.495703,217.324066 29.507053,217.252411 27.056503,217.172699 
z"/>
<path fill="#F8FBFD" opacity="1.000000" stroke="none" 
	d="
M66.183640,219.234283 
	C62.279842,219.390854 61.715340,217.473038 63.835915,215.508698 
	C65.438011,214.024643 68.284111,212.765976 70.275139,213.116913 
	C72.503716,213.509735 74.392509,215.830200 76.429161,217.311844 
	C76.185722,217.953049 75.942284,218.594269 75.698837,219.235474 
	C72.681480,219.235474 69.664116,219.235474 66.183640,219.234283 
z"/>
</svg>